<svg xmlns="http://www.w3.org/2000/svg" xmlns:xlink="http://www.w3.org/1999/xlink" version="1.1" x="0px" y="0px" viewBox="0 0 100 125" enable-background="new 0 0 100 100" xml:space="preserve"><g><circle cx="32.397" cy="38.66" r="6.144"/><path d="M50,26.372c-3.393,0-6.144,2.751-6.144,6.144c0,3.393,2.751,6.144,6.144,6.144s6.144-2.751,6.144-6.144   C56.144,29.123,53.393,26.372,50,26.372z"/><circle cx="67.607" cy="38.058" r="6.144"/><path fill="#00ff00" d="M91.635,41.52h-4.779c-0.662-1.977-1.393-3.932-2.215-5.85l-3.501-8.168c-2.22-5.18-6.99-8.82-12.572-9.594   c-12.32-1.709-24.817-1.709-37.137,0h0c-5.582,0.774-10.352,4.414-12.572,9.594l-3.501,8.168c-0.822,1.918-1.553,3.873-2.215,5.85   H8.365C6.507,41.52,5,43.027,5,44.885c0,1.273,0.715,2.367,1.757,2.939l0,0c0.141,0.077,0.284,0.148,0.436,0.205l3.684,1.729   c-1.653,7.427-2.203,17.88-1.627,25.425l0.048,0.625c0.326,4.27,3.886,7.568,8.168,7.568h5.244c2.578,0,5.006-1.214,6.553-3.277   c1.547-2.063,3.975-3.277,6.553-3.277H50h14.183c2.578,0,5.006,1.214,6.553,3.277h0c1.547,2.063,3.975,3.277,6.553,3.277h5.244   c4.282,0,7.842-3.298,8.168-7.568l0.048-0.625c0.576-7.544,0.026-17.998-1.627-25.425l3.684-1.729   c0.152-0.057,0.295-0.127,0.436-0.205l0,0C94.285,47.252,95,46.158,95,44.885C95,43.027,93.494,41.52,91.635,41.52z M20.259,64.761   c-3.393,0-6.144-2.751-6.144-6.144c0-3.393,2.751-6.144,6.144-6.144s6.144,2.751,6.144,6.144   C26.403,62.01,23.652,64.761,20.259,64.761z M68.897,64.226C63.85,69.273,57.138,72.054,50,72.054   c-7.139,0-13.85-2.78-18.897-7.828c-0.713-0.713-0.713-1.868,0-2.581c0.713-0.713,1.868-0.713,2.581,0   c4.358,4.358,10.152,6.759,16.316,6.759c6.162,0,11.958-2.401,16.316-6.759c0.713-0.713,1.868-0.713,2.581,0   C69.61,62.358,69.61,63.513,68.897,64.226z M26.655,49.113l-4.456-0.325c-3.304-0.241-5.45-3.562-4.357-6.689   c0.543-1.555,1.139-3.09,1.786-4.599l3.501-8.169c1.579-3.684,4.971-6.273,8.941-6.823c9.862-1.368,25.999-1.368,35.861,0l0.001,0   c3.97,0.551,7.362,3.139,8.941,6.823l3.501,8.168c0.649,1.514,1.246,3.054,1.791,4.614c1.09,3.123-1.047,6.44-4.345,6.689   l-3.347,0.252C58.556,50.254,42.573,50.274,26.655,49.113z M79.741,64.761c-3.393,0-6.144-2.751-6.144-6.144   c0-3.393,2.751-6.144,6.144-6.144c3.393,0,6.144,2.751,6.144,6.144C85.885,62.01,83.134,64.761,79.741,64.761z"/></g></svg>