<?xml version="1.0" ?><!DOCTYPE svg  PUBLIC '-//W3C//DTD SVG 1.1//EN'  'http://www.w3.org/Graphics/SVG/1.1/DTD/svg11.dtd'><svg height="512px" style="enable-background:new 0 0 512 512;" version="1.1" viewBox="0 0 512 512" width="512px" xml:space="preserve" xmlns="http://www.w3.org/2000/svg" xmlns:xlink="http://www.w3.org/1999/xlink"><g id="_x32_87_x2C__coins_x2C__hand_x2C__currency_x2C__payment_x2C__money"><g><path fill="#00ff00" d="M143.708,390.771c-0.981-0.762-2.259-1.17-3.566-1.007    c-1.36,0.136-2.504,0.817-3.266,1.796c-0.79,0.98-1.198,2.26-1.034,3.593c0.135,1.334,0.816,2.478,1.795,3.238    c0.981,0.79,2.258,1.171,3.565,1.034c1.334-0.162,2.504-0.844,3.266-1.795c0.762-0.953,1.17-2.205,1.034-3.512v-0.082    C145.368,392.703,144.688,391.561,143.708,390.771 M344.367,220.239v-13.036c-4.055-1.17-7.021-2.912-8.926-5.28    c-1.878-2.368-2.83-5.198-2.83-8.573c0-3.402,1.089-6.26,3.211-8.572c2.15-2.341,4.981-3.674,8.545-4.028v-3.048h4.519v3.048    c3.32,0.408,5.987,1.552,7.947,3.401c1.958,1.852,3.212,4.355,3.755,7.485l-7.919,1.007c-0.489-2.449-1.742-4.11-3.783-4.98    v12.165c5.034,1.333,8.437,3.103,10.261,5.253c1.822,2.15,2.721,4.898,2.721,8.273c0,3.756-1.143,6.912-3.428,9.471    c-2.287,2.586-5.472,4.191-9.554,4.817v5.823h-4.519v-5.742c-3.592-0.435-6.477-1.769-8.734-4    c-2.261-2.205-3.675-5.361-4.301-9.416l8.109-0.953c0.327,1.66,0.953,3.075,1.878,4.273    C342.246,218.824,343.252,219.695,344.367,220.239z M211.094,158.16v-13.035c-4.055-1.171-7.022-2.939-8.9-5.281    c-1.906-2.367-2.857-5.225-2.857-8.572c0-3.43,1.088-6.287,3.211-8.6c2.15-2.314,4.98-3.647,8.546-4.002v-3.047h4.545v3.047    c3.32,0.408,5.959,1.525,7.919,3.402c1.96,1.852,3.211,4.354,3.755,7.457l-7.919,1.034c-0.489-2.448-1.742-4.11-3.755-4.979    v12.164c5.008,1.334,8.409,3.104,10.232,5.226c1.825,2.151,2.722,4.927,2.722,8.274c0,3.756-1.143,6.912-3.429,9.498    c-2.286,2.586-5.443,4.191-9.524,4.816v5.824h-4.545v-5.77c-3.566-0.436-6.479-1.742-8.737-3.974    c-2.232-2.231-3.675-5.36-4.299-9.443l8.109-0.952c0.354,1.66,0.981,3.102,1.879,4.299    C208.971,156.745,209.978,157.616,211.094,158.16z M139.381,383.123c3.157-0.354,6.177,0.6,8.491,2.45    c2.287,1.823,3.918,4.545,4.273,7.702v0.082c0.327,3.13-0.626,6.123-2.45,8.41c-1.823,2.313-4.573,3.945-7.729,4.3    c-3.157,0.354-6.177-0.6-8.491-2.45c-2.287-1.823-3.918-4.572-4.273-7.729c-0.353-3.157,0.599-6.178,2.45-8.491    C133.475,385.084,136.224,383.479,139.381,383.123z M132.522,326.543l-0.026-0.027l-0.028-0.027    c-3.266-3.129-5.933-4.219-8.11-4.273c-2.149-0.081-4.218,0.872-5.987,1.742l-4.055,1.934    c-8.109,3.837-21.364,10.123-23.431,14.043l-0.054,0.136c-1.497,3.157-0.083,8.246,1.523,13.962l1.388,5.088    c3.293,13.201,3.374,28.604,3.402,43.6c0.054,15.595,0.135,30.809,3.946,42.021l0.57,1.66c0.844-0.027,2.641-1.062,4.954-2.423    c4.41-2.585,13.228-6.667,23.296-11.321c19.678-9.09,44.227-20.438,46.13-24.657c0.681-1.524,0.818-3.429,0.518-5.715    c-0.381-2.586-1.333-5.606-2.804-9.009c-3.538-8.301-12.464-24.576-21.582-39.299    C144.715,341.975,137.204,331.061,132.522,326.543z M348.886,220.756c1.577-0.354,2.856-1.088,3.838-2.231    c0.979-1.17,1.469-2.504,1.469-4.082c0-1.388-0.407-2.586-1.251-3.593c-0.816-1.006-2.15-1.77-4.056-2.313V220.756z     M344.367,187.526c-1.225,0.435-2.176,1.17-2.91,2.149c-0.708,1.008-1.063,2.096-1.063,3.32c0,1.088,0.326,2.096,0.979,3.049    c0.653,0.951,1.659,1.714,2.993,2.285V187.526z M215.639,158.65c1.551-0.326,2.83-1.061,3.81-2.231    c1.007-1.144,1.497-2.505,1.497-4.056c0-1.388-0.435-2.586-1.251-3.593c-0.818-1.007-2.178-1.769-4.055-2.313V158.65z     M211.094,125.447c-1.225,0.436-2.178,1.144-2.885,2.15c-0.735,1.007-1.062,2.096-1.062,3.293c0,1.115,0.298,2.123,0.953,3.075    c0.653,0.925,1.66,1.714,2.994,2.286V125.447z M326.568,116.52c0-1.904,1.552-3.482,3.484-3.482c1.932,0,3.482,1.578,3.482,3.482    v38.457c3.021-0.79,6.152-1.307,9.363-1.524V116.52c0-1.904,1.552-3.482,3.483-3.482c1.933,0,3.483,1.578,3.483,3.482v36.906    c3.211,0.189,6.342,0.68,9.363,1.441V116.52c0-1.904,1.551-3.482,3.483-3.482c1.903,0,3.483,1.578,3.483,3.482v40.606    c6.559,2.64,12.438,6.587,17.363,11.513c9.443,9.443,15.296,22.507,15.296,36.932c0,14.424-5.853,27.487-15.296,36.959    c-9.471,9.443-22.535,15.295-36.959,15.295s-27.488-5.852-36.959-15.295l-0.163-0.164c-9.361-9.443-15.131-22.453-15.131-36.795    c0-14.425,5.85-27.488,15.294-36.959c4.817-4.79,10.561-8.654,16.928-11.322V116.52z M349.865,103.566    c0,1.932-1.551,3.483-3.483,3.483c-1.932,0-3.483-1.552-3.483-3.483V92.299c0-1.932,1.552-3.483,3.483-3.483    c1.933,0,3.483,1.552,3.483,3.483V103.566z M366.195,103.566c0,1.932-1.58,3.483-3.483,3.483c-1.933,0-3.483-1.552-3.483-3.483    V91.7c0-1.933,1.551-3.484,3.483-3.484c1.903,0,3.483,1.552,3.483,3.484V103.566z M333.535,103.566    c0,1.932-1.551,3.483-3.482,3.483c-1.933,0-3.484-1.552-3.484-3.483V91.7c0-1.933,1.552-3.484,3.484-3.484    c1.932,0,3.482,1.552,3.482,3.484V103.566z M36.098,456.824c-1.932,0-3.483-1.551-3.483-3.484c0-1.932,1.551-3.483,3.483-3.483    h322.83c1.933,0,3.484,1.552,3.484,3.483c0,1.934-1.552,3.484-3.484,3.484H36.098z M193.294,54.306    c0-1.933,1.579-3.483,3.485-3.483c1.932,0,3.483,1.551,3.483,3.483v38.565c3.02-0.764,6.15-1.279,9.361-1.498V54.306    c0-1.933,1.551-3.483,3.483-3.483c1.934,0,3.485,1.551,3.485,3.483v37.041c3.211,0.19,6.34,0.68,9.362,1.415V54.306    c0-1.933,1.551-3.483,3.483-3.483s3.483,1.551,3.483,3.483v40.741c6.559,2.641,12.438,6.587,17.365,11.485    c9.442,9.472,15.294,22.534,15.294,36.96c0,14.424-5.853,27.486-15.294,36.958c-9.472,9.442-22.534,15.296-36.96,15.296    c-14.424,0-27.487-5.854-36.931-15.296l-0.191-0.19c-9.333-9.444-15.131-22.426-15.131-36.768c0-14.426,5.853-27.488,15.294-36.96    c4.819-4.79,10.56-8.682,16.928-11.321V54.306z M216.592,41.352c0,1.932-1.551,3.483-3.485,3.483    c-1.932,0-3.483-1.552-3.483-3.483V30.057c0-1.904,1.551-3.483,3.483-3.483c1.934,0,3.485,1.579,3.485,3.483V41.352z     M232.92,41.352c0,1.932-1.551,3.483-3.483,3.483s-3.483-1.552-3.483-3.483V29.485c0-1.933,1.551-3.483,3.483-3.483    s3.483,1.551,3.483,3.483V41.352z M200.262,41.352c0,1.932-1.551,3.483-3.483,3.483c-1.906,0-3.485-1.552-3.485-3.483V29.485    c0-1.933,1.579-3.483,3.485-3.483c1.932,0,3.483,1.551,3.483,3.483V41.352z M147.383,472.065c-1.852,0-3.348-1.497-3.348-3.349    c0-1.823,1.497-3.347,3.348-3.347h229.046c1.849,0,3.347,1.523,3.347,3.347c0,1.852-1.498,3.349-3.347,3.349H147.383z     M281.5,485.999c-1.852,0-3.349-1.497-3.349-3.348c0-1.823,1.497-3.347,3.349-3.347h158.503c1.852,0,3.349,1.523,3.349,3.347    c0,1.851-1.497,3.348-3.349,3.348H281.5z M456.224,485.999c-1.851,0-3.348-1.497-3.348-3.348c0-1.823,1.497-3.347,3.348-3.347    h19.813c1.852,0,3.348,1.523,3.348,3.347c0,1.851-1.496,3.348-3.348,3.348H456.224z M138.346,485.591    c-1.823,0-3.346-1.497-3.346-3.348s1.523-3.348,3.346-3.348h75.116c1.851,0,3.348,1.497,3.348,3.348s-1.497,3.348-3.348,3.348    H138.346z M302.374,282.072c1.715,0.626,2.613,2.559,1.986,4.273c-0.626,1.742-2.558,2.613-4.299,1.986    c-0.191-0.055-66.106-24.467-87.743-19.051c-22.208,5.553-71.332,33.121-71.469,33.203c-1.605,0.898-3.646,0.299-4.517-1.307    c-0.898-1.605-0.326-3.619,1.279-4.518c0.135-0.082,50.021-28.086,73.101-33.855C234.362,256.871,302.183,281.991,302.374,282.072    z M178.572,387.751c36.441-13.526,55.166-7.513,75.005-1.116c12.982,4.164,26.481,8.519,46.185,7.049    c15.486-1.143,50.976-17.854,80.122-36.387c24.113-15.377,43.681-31.625,43.056-40.443l-0.108-0.87    c-0.6-4.327-3.321-6.858-6.859-8.246c-4.081-1.606-9.253-1.823-13.88-1.497c-1.225,0.082-2.367,0.218-3.455,0.354    c-10.832,1.497-25.23,6.123-39.027,12.029c-13.281,5.716-25.938,12.602-34.237,19.078c-2.667,5.852-8.874,8.955-16.928,10.205    c-19.052,2.995-49.07-5.088-60.609-8.19l-2.641-0.708c-1.769-0.49-2.831-2.314-2.367-4.082c0.49-1.797,2.313-2.858,4.082-2.367    l2.641,0.707c11.185,2.993,40.252,10.832,57.888,8.056c8.19-1.279,13.688-5.144,12.463-13.554l-0.135-0.734    c-2.586-13.092-24.031-21.936-48.117-27.053c-24.766-5.307-52.063-6.477-65.563-4.409l-1.877,0.327    c-9.662,1.932-22.208,7.158-34.455,13.145c-10.777,5.28-21.366,11.132-29.666,15.867c4.925,5.797,11.404,15.35,17.744,25.582    C166.16,363.91,174.325,378.66,178.572,387.751z" style="fill-rule:evenodd;clip-rule:evenodd;"/></g></g><g id="Layer_1"/></svg>