<svg xmlns="http://www.w3.org/2000/svg" xmlns:xlink="http://www.w3.org/1999/xlink" version="1.1" x="0px" y="0px" viewBox="0 0 100 125" style="enable-background:new 0 0 100 100;" xml:space="preserve"><g><g><g><g><g><path fill="#00ff00" d="M19.8,39c-4.6,0-8.4-3.8-8.4-8.4s3.8-8.4,8.4-8.4c4.6,0,8.4,3.8,8.4,8.4S24.4,39,19.8,39z M19.8,24.6       c-3.3,0-6,2.7-6,6s2.7,6,6,6c3.3,0,6-2.7,6-6S23.1,24.6,19.8,24.6z"/></g><g><path fill="#00ff00" d="M77.1,39c-4.6,0-8.4-3.8-8.4-8.4s3.8-8.4,8.4-8.4c4.6,0,8.4,3.8,8.4,8.4S81.7,39,77.1,39z M77.1,24.6       c-3.3,0-6,2.7-6,6s2.7,6,6,6c3.3,0,6-2.7,6-6S80.4,24.6,77.1,24.6z"/></g><g><path fill="#00ff00" d="M54.2,15h-35c-1.2,0-2.4-0.6-3.1-1.6l-1.6-2.2c-0.4-0.5-0.3-1.3,0.3-1.7c0.5-0.4,1.3-0.3,1.7,0.3       l1.6,2.2c0.3,0.4,0.7,0.6,1.2,0.6h35c5.6,0,11-1.2,16.1-3.5l0.2-0.1c0.6-0.3,1.3,0,1.6,0.6c0.3,0.6,0,1.3-0.6,1.6l-0.2,0.1       C65.8,13.7,60.1,15,54.2,15z"/></g></g><g><path fill="#00ff00" d="M44.2,15c-0.7,0-1.2-0.5-1.2-1.2V4.9c0-0.7,0.5-1.2,1.2-1.2c0.7,0,1.2,0.5,1.2,1.2v8.9      C45.4,14.4,44.8,15,44.2,15z"/></g></g><g><path fill="#00ff00" d="M91.7,31.8h-7.4c-0.7,0-1.2-0.5-1.2-1.2c0-0.7,0.5-1.2,1.2-1.2h7.4c2.1,0,3.7-1.7,3.7-3.7     c0-0.7,0.5-1.2,1.2-1.2c0.7,0,1.2,0.5,1.2,1.2C97.8,29.1,95.1,31.8,91.7,31.8z"/></g><g><path fill="#00ff00" d="M12.6,31.8H6.4c-2.3,0-4.2-1.9-4.2-4.2V14.1c0-2.6,2.1-4.8,4.8-4.8h8l0.1-0.1c7.3-5.2,15.7-8.4,24.2-9.1     c9.3-0.8,18.2,1.1,26.4,5.6L71.3,9c2.6,0,18.7,0.6,26.2,8.1c0.2,0.2,0.3,0.5,0.3,0.8v3.8c0,0.7-0.5,1.2-1.2,1.2H93     c-0.2,0-0.4-0.1-0.6-0.2l-3.5-2c-0.4-0.2-0.6-0.6-0.6-1v-2.2c0-0.7,0.5-1.2,1.2-1.2c0.7,0,1.2,0.5,1.2,1.2V19l2.7,1.5h2.2v-2.1     c-7.5-7-24.3-7.1-24.5-7.1c-0.2,0-0.4-0.1-0.6-0.2l-5.8-3.3c-7.8-4.3-16.2-6.1-25-5.3c-8.1,0.7-16.1,3.7-23.1,8.7l-0.4,0.3     c-0.2,0.1-0.4,0.2-0.7,0.2H6.9c-1.3,0-2.4,1.1-2.4,2.4v13.5c0,1,0.8,1.8,1.8,1.8h6.3c0.7,0,1.2,0.5,1.2,1.2     C13.8,31.3,13.3,31.8,12.6,31.8z"/></g><g><path fill="#00ff00" d="M69.9,31.8H27c-0.7,0-1.2-0.5-1.2-1.2c0-0.7,0.5-1.2,1.2-1.2h42.9c0.7,0,1.2,0.5,1.2,1.2     C71.1,31.3,70.6,31.8,69.9,31.8z"/></g></g><circle cx="19.8" cy="30.6" r="2"/><circle cx="77.1" cy="30.6" r="2"/><g><path fill="#00ff00" d="M36.1,69.6c-0.3,0-0.6-0.1-0.8-0.3c-0.5-0.5-0.5-1.2,0-1.7l14-14c0.5-0.5,1.2-0.5,1.7,0    c0.5,0.5,0.5,1.2,0,1.7l-14,14C36.7,69.5,36.4,69.6,36.1,69.6z"/></g><g><path fill="#00ff00" d="M63.9,69.4c-0.3,0-0.6-0.1-0.8-0.3L49.3,55.2c-0.2-0.2-0.3-0.5-0.3-0.8V38.9c0-0.7,0.5-1.2,1.2-1.2    c0.7,0,1.2,0.5,1.2,1.2v15l13.5,13.5c0.5,0.5,0.5,1.2,0,1.7C64.5,69.3,64.2,69.4,63.9,69.4z"/></g><g><g><g><g><path fill="#00ff00" d="M21.4,81.5c-5.1,0-9.2-4.1-9.2-9.2c0-5.1,4.1-9.2,9.2-9.2c5,0,9.2,4.1,9.2,9.2       C30.6,77.4,26.5,81.5,21.4,81.5z M21.4,65.5c-3.7,0-6.8,3-6.8,6.8c0,3.7,3,6.8,6.8,6.8s6.8-3,6.8-6.8       C28.2,68.6,25.2,65.5,21.4,65.5z"/></g></g></g><g><path fill="#00ff00" d="M7.8,99.8c-0.7,0-1.2-0.5-1.2-1.2v-8.3c0-2.7,1.1-5.3,3.1-7.2l5.9-5.5c0.5-0.4,1.2-0.4,1.7,0.1     c0.4,0.5,0.4,1.2-0.1,1.7l-5.9,5.5C9.9,86.3,9,88.3,9,90.4v8.3C9,99.3,8.5,99.8,7.8,99.8z"/></g><g><path fill="#00ff00" d="M35.1,100c-0.7,0-1.2-0.5-1.2-1.2v-8.3c0-2.1-0.9-4.2-2.5-5.6l-6-5.3c-0.5-0.4-0.5-1.2-0.1-1.7     c0.4-0.5,1.2-0.5,1.7-0.1l6,5.3c2.1,1.9,3.3,4.6,3.3,7.4v8.3C36.3,99.5,35.7,100,35.1,100z"/></g></g><g><g><g><g><path fill="#00ff00" d="M78.6,81.5c-5,0-9.2-4.1-9.2-9.2c0-5.1,4.1-9.2,9.2-9.2c5.1,0,9.2,4.1,9.2,9.2       C87.7,77.4,83.6,81.5,78.6,81.5z M78.6,65.5c-3.7,0-6.8,3-6.8,6.8c0,3.7,3,6.8,6.8,6.8s6.8-3,6.8-6.8       C85.4,68.6,82.3,65.5,78.6,65.5z"/></g></g></g><g><path fill="#00ff00" d="M64.9,99.8c-0.7,0-1.2-0.5-1.2-1.2v-8.3c0-2.7,1.1-5.3,3.1-7.2l5.9-5.5c0.5-0.4,1.2-0.4,1.7,0.1     c0.4,0.5,0.4,1.2-0.1,1.7l-5.9,5.5c-1.5,1.4-2.4,3.4-2.4,5.4v8.3C66.1,99.3,65.6,99.8,64.9,99.8z"/></g><g><path fill="#00ff00" d="M92.2,100c-0.7,0-1.2-0.5-1.2-1.2v-8.3c0-2.1-0.9-4.2-2.5-5.6l-6-5.3C82,79.2,82,78.5,82.4,78     c0.4-0.5,1.2-0.5,1.7-0.1l6,5.3c2.1,1.9,3.3,4.6,3.3,7.4v8.3C93.4,99.5,92.8,100,92.2,100z"/></g></g></g><text x="0" y="115" fill="#000000" font-size="5px" font-weight="bold" font-family="'Helvetica Neue', Helvetica, Arial-Unicode, Arial, Sans-serif">Created by Andrei Yushchenko</text><text x="0" y="120" fill="#000000" font-size="5px" font-weight="bold" font-family="'Helvetica Neue', Helvetica, Arial-Unicode, Arial, Sans-serif">from the Noun Project</text></svg>