<?xml version="1.0" ?><svg enable-background="new 0 0 52 52" id="Layer_1" version="1.1" viewBox="0 0 52 52" xml:space="preserve" xmlns="http://www.w3.org/2000/svg" xmlns:xlink="http://www.w3.org/1999/xlink"><g><g><path fill="#00ff00" d="M33.5008507,29.003479c1.9111328,0,3.8007813,0.4780273,5.4648438,1.3823242    c0.3021851,0.1629028,0.5795288,0.3569946,0.8626709,0.5438232c2.7310181-5.3461304,4.1723022-11.0003662,4.1723022-16.5164185    c0-0.3099976,0-0.6300049-0.0099487-0.9499512c-0.0200195-0.4500122-0.3400269-0.8400269-0.7900391-0.9400024    C37.1607018,11.203248,31.69067,7.933228,27.3906822,3.0732429l-0.6400146-0.7300415    c-0.1900024-0.2199707-0.4599609-0.3399658-0.75-0.3399658c-0.3099976-0.0399781-0.5499878,0.1099854-0.7399902,0.3200073    L24.2806969,3.40326c-4.0800171,4.4899902-9.2200308,7.5899658-14.8599844,8.9699707l-0.6500244,0.1599731    c-0.4400024,0.1000366-0.75,0.4900513-0.7600098,0.9400024c-0.3599858,14.0599966,7.9400024,24.1700439,11.5200186,27.8699951    c0.9692993,0.9951782,2.0499268,1.984314,3.0774536,2.8018799c-0.385437-1.1624756-0.6072998-2.3856812-0.6072998-3.6416016    C22.0008507,34.1621704,27.1595421,29.003479,33.5008507,29.003479z"/></g><g><path d="M38.0106773,32.1432495c-1.3800049-0.75-2.9400024-1.1400146-4.5100098-1.1400146    c-5.2399902,0-9.5,4.2600098-9.5,9.5c0,1.7700195,0.4800415,3.5,1.4000244,4.9799805    c1.75,2.8300171,4.7700195,4.5200195,8.0999756,4.5200195c5.2300415,0,9.5-4.2600098,9.5-9.5    C43.0006676,37.0032349,41.0906944,33.8032227,38.0106773,32.1432495z M38.3660851,39.2383423l-7.4301758,5.7822266    l-2.5366211-3.9677734c-0.2978516-0.465332-0.1616211-1.0834961,0.3037109-1.3808594    c0.4658203-0.2978516,1.0844727-0.1606445,1.3808594,0.3037109l1.3549805,2.1191406l5.6987305-4.4345703    c0.4350586-0.3393555,1.0639648-0.2617188,1.4033203,0.1748047    C38.8802452,38.2710571,38.8016319,38.8994751,38.3660851,39.2383423z" fill="#3A92CC"/></g></g></svg>